<svg id="visual" viewBox="0 0 900 600" width="900" height="600" xmlns="http://www.w3.org/2000/svg" xmlns:xlink="http://www.w3.org/1999/xlink" version="1.1">
  <path d="M0 85L150 85L300 73L450 73L600 109L750 79L900 115L900 0L750 0L600 0L450 0L300 0L150 0L0 0Z" fill="#FAF3DD"></path>
  <path d="M0 277L150 265L300 223L450 277L600 247L750 319L900 355L900 113L750 77L600 107L450 71L300 71L150 83L0 83Z" fill="#E0C097"></path>
  <path d="M0 433L150 415L300 349L450 379L600 337L750 427L900 439L900 353L750 317L600 245L450 275L300 221L150 263L0 275Z" fill="#D4B483"></path>
  <path d="M0 601L150 601L300 601L450 601L600 601L750 601L900 601L900 437L750 425L600 335L450 377L300 347L150 413L0 431Z" fill="#A47148"></path>
</svg>
