<svg id="visual" viewBox="0 0 900 600" width="900" height="600" xmlns="http://www.w3.org/2000/svg" xmlns:xlink="http://www.w3.org/1999/xlink" version="1.1"><path d="M0 199L82 181L164 253L245 187L327 163L409 157L491 91L573 211L655 217L736 115L818 133L900 217L900 0L818 0L736 0L655 0L573 0L491 0L409 0L327 0L245 0L164 0L82 0L0 0Z" fill="#038373"></path><path d="M0 319L82 223L164 307L245 235L327 253L409 241L491 187L573 319L655 325L736 229L818 229L900 301L900 215L818 131L736 113L655 215L573 209L491 89L409 155L327 161L245 185L164 251L82 179L0 197Z" fill="#00957c"></path><path d="M0 409L82 499L164 439L245 391L327 355L409 433L491 367L573 439L655 457L736 487L818 457L900 445L900 299L818 227L736 227L655 323L573 317L491 185L409 239L327 251L245 233L164 305L82 221L0 317Z" fill="#00a784"></path><path d="M0 565L82 565L164 559L245 535L327 499L409 535L491 517L573 499L655 505L736 553L818 541L900 529L900 443L818 455L736 485L655 455L573 437L491 365L409 431L327 353L245 389L164 437L82 497L0 407Z" fill="#00b98a"></path><path d="M0 601L82 601L164 601L245 601L327 601L409 601L491 601L573 601L655 601L736 601L818 601L900 601L900 527L818 539L736 551L655 503L573 497L491 515L409 533L327 497L245 533L164 557L82 563L0 563Z" fill="#00cc8e"></path></svg>