<svg id="visual" viewBox="0 0 900 600" width="900" height="600" xmlns="http://www.w3.org/2000/svg" xmlns:xlink="http://www.w3.org/1999/xlink" version="1.1"><path d="M0 235L82 235L82 235L164 235L164 217L245 217L245 217L327 217L327 133L409 133L409 265L491 265L491 277L573 277L573 139L655 139L655 193L736 193L736 175L818 175L818 121L900 121L900 115L900 0L900 0L818 0L818 0L736 0L736 0L655 0L655 0L573 0L573 0L491 0L491 0L409 0L409 0L327 0L327 0L245 0L245 0L164 0L164 0L82 0L82 0L0 0Z" fill="#fa7268"></path><path d="M0 385L82 385L82 385L164 385L164 373L245 373L245 343L327 343L327 337L409 337L409 379L491 379L491 379L573 379L573 373L655 373L655 427L736 427L736 313L818 313L818 331L900 331L900 367L900 113L900 119L818 119L818 173L736 173L736 191L655 191L655 137L573 137L573 275L491 275L491 263L409 263L409 131L327 131L327 215L245 215L245 215L164 215L164 233L82 233L82 233L0 233Z" fill="#ea5e66"></path><path d="M0 439L82 439L82 469L164 469L164 427L245 427L245 421L327 421L327 487L409 487L409 451L491 451L491 427L573 427L573 469L655 469L655 499L736 499L736 445L818 445L818 493L900 493L900 505L900 365L900 329L818 329L818 311L736 311L736 425L655 425L655 371L573 371L573 377L491 377L491 377L409 377L409 335L327 335L327 341L245 341L245 371L164 371L164 383L82 383L82 383L0 383Z" fill="#d84a64"></path><path d="M0 505L82 505L82 535L164 535L164 511L245 511L245 523L327 523L327 553L409 553L409 559L491 559L491 559L573 559L573 517L655 517L655 547L736 547L736 517L818 517L818 559L900 559L900 547L900 503L900 491L818 491L818 443L736 443L736 497L655 497L655 467L573 467L573 425L491 425L491 449L409 449L409 485L327 485L327 419L245 419L245 425L164 425L164 467L82 467L82 437L0 437Z" fill="#c53762"></path><path d="M0 601L82 601L82 601L164 601L164 601L245 601L245 601L327 601L327 601L409 601L409 601L491 601L491 601L573 601L573 601L655 601L655 601L736 601L736 601L818 601L818 601L900 601L900 601L900 545L900 557L818 557L818 515L736 515L736 545L655 545L655 515L573 515L573 557L491 557L491 557L409 557L409 551L327 551L327 521L245 521L245 509L164 509L164 533L82 533L82 503L0 503Z" fill="#b0235f"></path></svg>