<svg id="visual" viewBox="0 0 900 600" width="900" height="600" xmlns="http://www.w3.org/2000/svg" xmlns:xlink="http://www.w3.org/1999/xlink" version="1.1">
  <rect x="0" y="0" width="900" height="600" fill="#FDF6E3"></rect>

  <path d="M0 253L225 253L225 104L450 104L450 251L675 251L675 73L900 73L900 218L900 601L900 601L675 601L675 601L450 601L450 601L225 601L225 601L0 601Z" fill="#FAF3DD"></path>
  <path d="M0 292L225 292L225 311L450 311L450 320L675 320L675 309L900 309L900 183L900 601L900 601L675 601L675 601L450 601L450 601L225 601L225 601L0 601Z" fill="#E0C097"></path>
  <path d="M0 402L225 402L225 399L450 399L450 243L675 243L675 289L900 289L900 381L900 601L900 601L675 601L675 601L450 601L450 601L225 601L225 601L0 601Z" fill="#D4B483"></path>
  <path d="M0 476L225 476L225 446L450 446L450 388L675 388L675 419L900 419L900 411L900 601L900 601L675 601L675 601L450 601L450 601L225 601L225 601L0 601Z" fill="#A47148"></path>
  <path d="M0 446L225 446L225 553L450 553L450 567L675 567L675 504L900 504L900 455L900 601L900 601L675 601L675 601L450 601L450 601L225 601L225 601L0 601Z" fill="#C97B4B"></path>
</svg>
